STARTFONT 2.1
FONT -FontForge-Okuda-Bold-R-Normal--25-240-75-75-P-81-ISO10646-1
SIZE 24 75 75
FONTBOUNDINGBOX 21 27 -2 -5
COMMENT "Generated by fontforge, http://fontforge.sourceforge.net"
COMMENT "Okuda (c) (Neale Davidson). 2011-2014. All Rights Reserved"
STARTPROPERTIES 40
FOUNDRY "FontForge"
FAMILY_NAME "Okuda"
WEIGHT_NAME "Bold"
SLANT "R"
SETWIDTH_NAME "Normal"
ADD_STYLE_NAME ""
PIXEL_SIZE 25
POINT_SIZE 240
RESOLUTION_X 75
RESOLUTION_Y 75
SPACING "P"
AVERAGE_WIDTH 81
CHARSET_REGISTRY "ISO10646"
CHARSET_ENCODING "1"
FONTNAME_REGISTRY ""
CHARSET_COLLECTIONS "Symbol ISO10646-1"
FONT_NAME "Okuda-Bold"
FACE_NAME "Okuda Bold"
COPYRIGHT "Okuda (c) (Neale Davidson). 2011-2014. All Rights Reserved"
FONT_VERSION "3.50 January 2, 2014"
FONT_ASCENT 20
FONT_DESCENT 5
UNDERLINE_POSITION -4
UNDERLINE_THICKNESS 2
X_HEIGHT 12
CAP_HEIGHT 16
DEFAULT_CHAR 1
RAW_ASCENT 799
RAW_DESCENT 200
NORM_SPACE 6
RELATIVE_WEIGHT 70
RELATIVE_SETWIDTH 50
SUPERSCRIPT_X 0
SUPERSCRIPT_Y 11
SUPERSCRIPT_SIZE 16
SUBSCRIPT_X 0
SUBSCRIPT_Y 3
SUBSCRIPT_SIZE 16
AVG_LOWERCASE_WIDTH 66
AVG_UPPERCASE_WIDTH 70
ENDPROPERTIES
CHARS 244
STARTCHAR .null.dup1
ENCODING 0
SWIDTH 0 0
DWIDTH 0 0
BBX 1 1 0 0
BITMAP
00
ENDCHAR
STARTCHAR .null
ENCODING 29
SWIDTH 0 0
DWIDTH 0 0
BBX 1 1 0 0
BITMAP
00
ENDCHAR
STARTCHAR space
ENCODING 32
SWIDTH 244 0
DWIDTH 6 0
BBX 1 1 0 0
BITMAP
00
ENDCHAR
STARTCHAR exclam
ENCODING 33
SWIDTH 122 0
DWIDTH 3 0
BBX 3 17 0 0
BITMAP
E0
E0
E0
E0
E0
E0
E0
E0
E0
E0
E0
E0
E0
E0
00
E0
E0
ENDCHAR
STARTCHAR quotedbl
ENCODING 34
SWIDTH 249 0
DWIDTH 6 0
BBX 6 3 0 15
BITMAP
7C
7C
F8
ENDCHAR
STARTCHAR numbersign
ENCODING 35
SWIDTH 410 0
DWIDTH 10 0
BBX 10 10 0 5
BITMAP
3B00
3B00
FFC0
FFC0
FFC0
3B00
FFC0
FFC0
3B00
3B00
ENDCHAR
STARTCHAR dollar
ENCODING 36
SWIDTH 268 0
DWIDTH 7 0
BBX 6 17 0 0
BITMAP
38
38
7C
FC
EC
E0
E0
70
38
1C
1C
0C
EC
EC
7C
7C
38
ENDCHAR
STARTCHAR percent
ENCODING 37
SWIDTH 439 0
DWIDTH 11 0
BBX 11 18 0 -1
BITMAP
78E0
7DC0
EDC0
ED80
EF80
EF00
FF00
7E00
3E00
0FC0
1FC0
1EE0
3EE0
3EE0
76E0
77E0
67C0
0100
ENDCHAR
STARTCHAR ampersand
ENCODING 38
SWIDTH 292 0
DWIDTH 7 0
BBX 7 18 0 -1
BITMAP
70
70
E0
E0
E0
EC
EC
FE
7E
FE
EC
EC
EC
EC
EC
FC
7C
10
ENDCHAR
STARTCHAR quotesingle
ENCODING 39
SWIDTH 146 0
DWIDTH 4 0
BBX 3 3 0 15
BITMAP
60
60
E0
ENDCHAR
STARTCHAR parenleft
ENCODING 40
SWIDTH 219 0
DWIDTH 6 0
BBX 5 21 0 -2
BITMAP
18
38
30
70
70
60
60
E0
E0
E0
E0
E0
E0
E0
60
60
60
70
30
38
18
ENDCHAR
STARTCHAR parenright
ENCODING 41
SWIDTH 219 0
DWIDTH 6 0
BBX 5 21 0 -2
BITMAP
E0
60
70
70
30
38
38
18
18
18
18
18
18
18
38
38
38
30
70
60
E0
ENDCHAR
STARTCHAR asterisk
ENCODING 42
SWIDTH 781 0
DWIDTH 20 0
BBX 19 20 0 -2
BITMAP
004000
006000
00E000
00D000
015000
014800
074C00
1A4900
23F4C0
446460
C4E420
848220
800220
48CE20
690640
3A0280
160700
1DF900
180100
100000
ENDCHAR
STARTCHAR plus
ENCODING 43
SWIDTH 264 0
DWIDTH 7 0
BBX 6 6 0 6
BITMAP
38
38
FC
FC
38
38
ENDCHAR
STARTCHAR comma
ENCODING 44
SWIDTH 146 0
DWIDTH 4 0
BBX 3 3 0 -1
BITMAP
60
60
E0
ENDCHAR
STARTCHAR hyphen
ENCODING 45
SWIDTH 268 0
DWIDTH 7 0
BBX 6 2 0 7
BITMAP
FC
FC
ENDCHAR
STARTCHAR period
ENCODING 46
SWIDTH 122 0
DWIDTH 3 0
BBX 3 2 0 0
BITMAP
E0
E0
ENDCHAR
STARTCHAR slash
ENCODING 47
SWIDTH 268 0
DWIDTH 7 0
BBX 6 17 0 0
BITMAP
0C
0C
0C
1C
1C
18
18
38
38
30
30
30
70
70
60
60
E0
ENDCHAR
STARTCHAR zero
ENCODING 48
SWIDTH 268 0
DWIDTH 7 0
BBX 6 18 0 -1
BITMAP
78
7C
EC
EC
EC
EC
EC
EC
EC
EC
EC
EC
EC
EC
EC
FC
7C
10
ENDCHAR
STARTCHAR one
ENCODING 49
SWIDTH 160 0
DWIDTH 4 0
BBX 4 17 0 0
BITMAP
70
70
F0
F0
70
70
70
70
70
70
70
70
70
70
70
70
70
ENDCHAR
STARTCHAR two
ENCODING 50
SWIDTH 268 0
DWIDTH 7 0
BBX 6 17 0 0
BITMAP
78
7C
EC
EC
EC
0C
0C
1C
1C
38
70
70
E0
E0
E0
FC
FC
ENDCHAR
STARTCHAR three
ENCODING 51
SWIDTH 268 0
DWIDTH 7 0
BBX 6 18 0 -1
BITMAP
78
7C
EC
EC
EC
0C
0C
3C
3C
3C
0C
0C
EC
EC
EC
FC
7C
10
ENDCHAR
STARTCHAR four
ENCODING 52
SWIDTH 337 0
DWIDTH 8 0
BBX 8 17 0 0
BITMAP
06
0E
0E
1E
1E
1E
3E
36
76
76
66
FF
FF
FF
06
06
06
ENDCHAR
STARTCHAR five
ENCODING 53
SWIDTH 268 0
DWIDTH 7 0
BBX 6 18 0 -1
BITMAP
FC
FC
FC
E0
E0
E0
F0
FC
FC
EC
0C
0C
EC
EC
EC
FC
7C
10
ENDCHAR
STARTCHAR six
ENCODING 54
SWIDTH 268 0
DWIDTH 7 0
BBX 6 18 0 -1
BITMAP
78
7C
EC
EC
EC
E0
F0
FC
FC
EC
EC
EC
EC
EC
EC
FC
7C
10
ENDCHAR
STARTCHAR seven
ENCODING 55
SWIDTH 292 0
DWIDTH 7 0
BBX 7 17 0 0
BITMAP
FE
FE
FE
0E
0E
0E
0C
0C
1C
1C
18
18
38
38
30
30
30
ENDCHAR
STARTCHAR eight
ENCODING 56
SWIDTH 268 0
DWIDTH 7 0
BBX 6 18 0 -1
BITMAP
78
7C
EC
EC
EC
EC
EC
FC
7C
FC
EC
EC
EC
EC
EC
FC
7C
10
ENDCHAR
STARTCHAR nine
ENCODING 57
SWIDTH 268 0
DWIDTH 7 0
BBX 6 18 0 -1
BITMAP
78
7C
EC
EC
EC
EC
EC
EC
EC
7C
7C
0C
EC
EC
EC
FC
7C
10
ENDCHAR
STARTCHAR colon
ENCODING 58
SWIDTH 122 0
DWIDTH 3 0
BBX 3 10 0 0
BITMAP
E0
E0
E0
00
00
00
00
00
E0
E0
ENDCHAR
STARTCHAR semicolon
ENCODING 59
SWIDTH 146 0
DWIDTH 4 0
BBX 3 11 0 -1
BITMAP
60
60
60
00
00
00
00
00
60
60
E0
ENDCHAR
STARTCHAR less
ENCODING 60
SWIDTH 292 0
DWIDTH 7 0
BBX 7 13 0 2
BITMAP
0E
0E
1C
38
38
70
E0
70
70
38
1C
1C
0E
ENDCHAR
STARTCHAR equal
ENCODING 61
SWIDTH 264 0
DWIDTH 7 0
BBX 6 6 0 6
BITMAP
FC
FC
00
00
FC
FC
ENDCHAR
STARTCHAR greater
ENCODING 62
SWIDTH 292 0
DWIDTH 7 0
BBX 7 13 0 2
BITMAP
E0
70
70
38
1C
1C
0E
0E
1C
38
38
70
E0
ENDCHAR
STARTCHAR question
ENCODING 63
SWIDTH 268 0
DWIDTH 7 0
BBX 6 17 0 0
BITMAP
78
7C
EC
EC
EC
0C
0C
0C
1C
1C
38
38
30
30
00
30
30
ENDCHAR
STARTCHAR at
ENCODING 64
SWIDTH 366 0
DWIDTH 9 0
BBX 9 15 0 1
BITMAP
3E00
7F00
FF80
E380
EF80
FF80
FF80
FB80
FB80
FB80
FF80
FF80
E400
7F00
7F00
ENDCHAR
STARTCHAR A
ENCODING 65
SWIDTH 292 0
DWIDTH 7 0
BBX 7 17 0 0
BITMAP
38
38
38
3C
3C
7C
7C
7C
7C
7C
7C
7E
7E
FE
EE
EE
E6
ENDCHAR
STARTCHAR B
ENCODING 66
SWIDTH 292 0
DWIDTH 7 0
BBX 7 17 0 0
BITMAP
F8
FE
FE
E6
E6
E6
E6
FE
FE
FE
E6
E6
E6
E6
E6
FE
FC
ENDCHAR
STARTCHAR C
ENCODING 67
SWIDTH 292 0
DWIDTH 7 0
BBX 7 18 0 -1
BITMAP
7C
7E
EE
E6
E6
E0
E0
E0
E0
E0
E0
E0
E6
E6
E6
FE
7C
18
ENDCHAR
STARTCHAR D
ENCODING 68
SWIDTH 292 0
DWIDTH 7 0
BBX 7 17 0 0
BITMAP
F8
FE
FE
E6
E6
E6
E6
E6
E6
E6
E6
E6
E6
E6
E6
FE
FC
ENDCHAR
STARTCHAR E
ENCODING 69
SWIDTH 292 0
DWIDTH 7 0
BBX 7 17 0 0
BITMAP
FE
FE
FE
E0
E0
E0
E0
E0
FC
FC
E0
E0
E0
E0
E0
FE
FE
ENDCHAR
STARTCHAR F
ENCODING 70
SWIDTH 292 0
DWIDTH 7 0
BBX 7 17 0 0
BITMAP
FE
FE
FE
E0
E0
E0
E0
E0
FC
FC
E0
E0
E0
E0
E0
E0
E0
ENDCHAR
STARTCHAR G
ENCODING 71
SWIDTH 292 0
DWIDTH 7 0
BBX 7 18 0 -1
BITMAP
7C
7E
EE
E6
E6
E0
E0
E0
E0
FE
FE
E6
E6
E6
E6
FE
7E
10
ENDCHAR
STARTCHAR H
ENCODING 72
SWIDTH 292 0
DWIDTH 7 0
BBX 7 17 0 0
BITMAP
E6
E6
E6
E6
E6
E6
E6
FE
FE
E6
E6
E6
E6
E6
E6
E6
E6
ENDCHAR
STARTCHAR I
ENCODING 73
SWIDTH 122 0
DWIDTH 3 0
BBX 3 17 0 0
BITMAP
E0
E0
E0
E0
E0
E0
E0
E0
E0
E0
E0
E0
E0
E0
E0
E0
E0
ENDCHAR
STARTCHAR J
ENCODING 74
SWIDTH 292 0
DWIDTH 7 0
BBX 7 18 0 -1
BITMAP
06
06
06
06
06
06
06
06
06
06
06
06
E6
E6
E6
FE
7C
18
ENDCHAR
STARTCHAR K
ENCODING 75
SWIDTH 292 0
DWIDTH 7 0
BBX 8 17 0 0
BITMAP
E7
EE
EE
FC
F8
F8
F0
F0
F0
F0
F8
F8
F8
FC
EC
EE
E6
ENDCHAR
STARTCHAR L
ENCODING 76
SWIDTH 268 0
DWIDTH 7 0
BBX 6 17 0 0
BITMAP
E0
E0
E0
E0
E0
E0
E0
E0
E0
E0
E0
E0
E0
E0
E0
FC
FC
ENDCHAR
STARTCHAR M
ENCODING 77
SWIDTH 415 0
DWIDTH 10 0
BBX 10 17 0 0
BITMAP
E1C0
E1C0
F1C0
F1C0
F3C0
F3C0
F3C0
FBC0
FFC0
FFC0
FFC0
FEC0
FEC0
FEC0
EEC0
EEC0
EEC0
ENDCHAR
STARTCHAR N
ENCODING 78
SWIDTH 317 0
DWIDTH 8 0
BBX 8 17 0 0
BITMAP
E7
E7
F7
F7
F7
F7
FF
FF
FF
FF
FF
FF
EF
EF
EF
EF
E7
ENDCHAR
STARTCHAR O
ENCODING 79
SWIDTH 292 0
DWIDTH 7 0
BBX 7 18 0 -1
BITMAP
7C
7E
EE
E6
E6
E6
E6
E6
E6
E6
E6
E6
E6
E6
E6
FE
7C
18
ENDCHAR
STARTCHAR P
ENCODING 80
SWIDTH 292 0
DWIDTH 7 0
BBX 7 17 0 0
BITMAP
F8
FE
FE
E6
E6
E6
E6
E6
FE
FC
F0
E0
E0
E0
E0
E0
E0
ENDCHAR
STARTCHAR Q
ENCODING 81
SWIDTH 292 0
DWIDTH 7 0
BBX 7 20 0 -3
BITMAP
38
7E
FE
E6
E6
E6
E6
E6
E6
E6
E6
E6
E6
E6
E6
FE
7C
3E
1E
0E
ENDCHAR
STARTCHAR R
ENCODING 82
SWIDTH 268 0
DWIDTH 7 0
BBX 7 17 0 0
BITMAP
F8
FC
FC
EC
EC
EC
EC
EC
FC
FC
FC
EC
EC
EC
EC
EC
EE
ENDCHAR
STARTCHAR S
ENCODING 83
SWIDTH 292 0
DWIDTH 7 0
BBX 7 18 0 -1
BITMAP
7C
7E
EE
E6
E6
E0
E0
70
38
1C
0E
06
E6
E6
E6
FE
7C
18
ENDCHAR
STARTCHAR T
ENCODING 84
SWIDTH 292 0
DWIDTH 7 0
BBX 7 17 0 0
BITMAP
FE
FE
FE
38
38
38
38
38
38
38
38
38
38
38
38
38
38
ENDCHAR
STARTCHAR U
ENCODING 85
SWIDTH 292 0
DWIDTH 7 0
BBX 7 18 0 -1
BITMAP
E6
E6
E6
E6
E6
E6
E6
E6
E6
E6
E6
E6
E6
E6
E6
FE
7C
18
ENDCHAR
STARTCHAR V
ENCODING 86
SWIDTH 292 0
DWIDTH 7 0
BBX 7 17 0 0
BITMAP
E6
EE
EE
EE
6E
6E
7E
7C
7C
7C
7C
7C
3C
3C
3C
38
38
ENDCHAR
STARTCHAR W
ENCODING 87
SWIDTH 476 0
DWIDTH 12 0
BBX 12 17 0 0
BITMAP
E670
EE70
EF70
EF70
6F60
6FE0
7FE0
7FE0
7FE0
7FE0
7FE0
7FC0
3FC0
3FC0
3FC0
39C0
39C0
ENDCHAR
STARTCHAR X
ENCODING 88
SWIDTH 292 0
DWIDTH 7 0
BBX 7 17 0 0
BITMAP
E6
EE
6E
7E
7C
7C
3C
38
38
38
3C
7C
7C
7C
6E
EE
EE
ENDCHAR
STARTCHAR Y
ENCODING 89
SWIDTH 292 0
DWIDTH 7 0
BBX 7 17 0 0
BITMAP
E6
EE
6E
7E
7C
7C
3C
38
38
38
38
38
38
38
38
38
38
ENDCHAR
STARTCHAR Z
ENCODING 90
SWIDTH 292 0
DWIDTH 7 0
BBX 7 17 0 0
BITMAP
FE
FE
FE
0E
0C
1C
1C
18
38
38
30
70
70
60
E0
FE
FE
ENDCHAR
STARTCHAR bracketleft
ENCODING 91
SWIDTH 219 0
DWIDTH 6 0
BBX 5 21 0 -2
BITMAP
F8
F8
F8
E0
E0
E0
E0
E0
E0
E0
E0
E0
E0
E0
E0
E0
E0
E0
E0
F8
F8
ENDCHAR
STARTCHAR backslash
ENCODING 92
SWIDTH 268 0
DWIDTH 7 0
BBX 6 17 0 0
BITMAP
E0
60
60
60
70
70
30
30
38
38
18
18
18
1C
1C
0C
0C
ENDCHAR
STARTCHAR bracketright
ENCODING 93
SWIDTH 219 0
DWIDTH 6 0
BBX 5 21 0 -2
BITMAP
F8
F8
F8
18
18
18
18
18
18
18
18
18
18
18
18
18
18
18
18
F8
F8
ENDCHAR
STARTCHAR asciicircum
ENCODING 94
SWIDTH 292 0
DWIDTH 7 0
BBX 7 3 0 18
BITMAP
38
7C
EE
ENDCHAR
STARTCHAR underscore
ENCODING 95
SWIDTH 336 0
DWIDTH 8 0
BBX 9 2 0 -3
BITMAP
FF80
FF80
ENDCHAR
STARTCHAR grave
ENCODING 96
SWIDTH 292 0
DWIDTH 7 0
BBX 5 3 1 18
BITMAP
F0
78
18
ENDCHAR
STARTCHAR a
ENCODING 97
SWIDTH 268 0
DWIDTH 7 0
BBX 6 13 0 0
BITMAP
7C
7C
EC
EC
0C
7C
7C
FC
EC
EC
EC
FC
7C
ENDCHAR
STARTCHAR b
ENCODING 98
SWIDTH 268 0
DWIDTH 7 0
BBX 6 17 0 0
BITMAP
E0
E0
E0
E0
FC
FC
EC
EC
EC
EC
EC
EC
EC
EC
EC
FC
FC
ENDCHAR
STARTCHAR c
ENCODING 99
SWIDTH 268 0
DWIDTH 7 0
BBX 6 14 0 -1
BITMAP
7C
7C
EC
EC
EC
E0
E0
E0
EC
EC
EC
FC
7C
10
ENDCHAR
STARTCHAR d
ENCODING 100
SWIDTH 268 0
DWIDTH 7 0
BBX 6 17 0 0
BITMAP
0C
0C
0C
1C
7C
7C
EC
EC
EC
EC
EC
EC
EC
EC
EC
FC
7C
ENDCHAR
STARTCHAR e
ENCODING 101
SWIDTH 268 0
DWIDTH 7 0
BBX 6 14 0 -1
BITMAP
7C
7C
EC
EC
EC
FC
FC
FC
EC
EC
EC
FC
7C
10
ENDCHAR
STARTCHAR f
ENCODING 102
SWIDTH 219 0
DWIDTH 6 0
BBX 5 17 0 0
BITMAP
08
38
38
30
F8
F8
30
30
30
30
30
30
30
30
30
30
30
ENDCHAR
STARTCHAR g
ENCODING 103
SWIDTH 268 0
DWIDTH 7 0
BBX 6 18 0 -5
BITMAP
7C
7C
EC
EC
EC
EC
EC
EC
EC
EC
EC
FC
7C
1C
EC
7C
7C
10
ENDCHAR
STARTCHAR h
ENCODING 104
SWIDTH 268 0
DWIDTH 7 0
BBX 6 17 0 0
BITMAP
E0
E0
E0
E0
FC
FC
EC
EC
EC
EC
EC
EC
EC
EC
EC
EC
EC
ENDCHAR
STARTCHAR i
ENCODING 105
SWIDTH 117 0
DWIDTH 3 0
BBX 3 17 0 0
BITMAP
E0
E0
E0
00
E0
E0
E0
E0
E0
E0
E0
E0
E0
E0
E0
E0
E0
ENDCHAR
STARTCHAR j
ENCODING 106
SWIDTH 189 0
DWIDTH 5 0
BBX 5 21 0 -4
BITMAP
38
38
38
00
38
38
38
38
38
38
38
38
38
38
38
38
38
38
38
F8
F0
ENDCHAR
STARTCHAR k
ENCODING 107
SWIDTH 264 0
DWIDTH 7 0
BBX 6 17 0 0
BITMAP
E0
E0
E0
E0
EC
EC
F8
F8
F8
F0
F0
F0
F8
F8
F8
FC
EC
ENDCHAR
STARTCHAR l
ENCODING 108
SWIDTH 122 0
DWIDTH 3 0
BBX 3 17 0 0
BITMAP
E0
E0
E0
E0
E0
E0
E0
E0
E0
E0
E0
E0
E0
E0
E0
E0
E0
ENDCHAR
STARTCHAR m
ENCODING 109
SWIDTH 415 0
DWIDTH 10 0
BBX 10 13 0 0
BITMAP
FF80
FFC0
ECC0
ECC0
ECC0
ECC0
ECC0
ECC0
ECC0
ECC0
ECC0
ECC0
ECC0
ENDCHAR
STARTCHAR n
ENCODING 110
SWIDTH 268 0
DWIDTH 7 0
BBX 6 13 0 0
BITMAP
FC
FC
EC
EC
EC
EC
EC
EC
EC
EC
EC
EC
EC
ENDCHAR
STARTCHAR o
ENCODING 111
SWIDTH 268 0
DWIDTH 7 0
BBX 6 14 0 -1
BITMAP
7C
7C
EC
EC
EC
EC
EC
EC
EC
EC
EC
FC
7C
10
ENDCHAR
STARTCHAR p
ENCODING 112
SWIDTH 268 0
DWIDTH 7 0
BBX 6 17 0 -4
BITMAP
FC
FC
EC
EC
EC
EC
EC
EC
EC
EC
EC
FC
FC
F0
E0
E0
E0
ENDCHAR
STARTCHAR q
ENCODING 113
SWIDTH 268 0
DWIDTH 7 0
BBX 6 17 0 -4
BITMAP
7C
7C
EC
EC
EC
EC
EC
EC
EC
EC
EC
FC
7C
1C
0C
0C
0C
ENDCHAR
STARTCHAR r
ENCODING 114
SWIDTH 268 0
DWIDTH 7 0
BBX 6 13 0 0
BITMAP
FC
FC
EC
E0
E0
E0
E0
E0
E0
E0
E0
E0
E0
ENDCHAR
STARTCHAR s
ENCODING 115
SWIDTH 268 0
DWIDTH 7 0
BBX 6 14 0 -1
BITMAP
7C
7C
EC
EC
60
70
38
18
1C
EC
EC
FC
7C
10
ENDCHAR
STARTCHAR t
ENCODING 116
SWIDTH 205 0
DWIDTH 5 0
BBX 5 17 0 0
BITMAP
70
70
70
70
F8
F8
70
70
70
70
70
70
70
70
70
78
38
ENDCHAR
STARTCHAR u
ENCODING 117
SWIDTH 268 0
DWIDTH 7 0
BBX 6 13 0 0
BITMAP
EC
EC
EC
EC
EC
EC
EC
EC
EC
EC
EC
FC
7C
ENDCHAR
STARTCHAR v
ENCODING 118
SWIDTH 292 0
DWIDTH 7 0
BBX 7 13 0 0
BITMAP
E6
6E
6E
6E
7C
7C
7C
3C
3C
3C
38
38
38
ENDCHAR
STARTCHAR w
ENCODING 119
SWIDTH 410 0
DWIDTH 10 0
BBX 10 13 0 0
BITMAP
EEC0
EFC0
6FC0
6FC0
7F80
7F80
7F80
7F80
7F80
3F80
3F80
3B00
3B00
ENDCHAR
STARTCHAR x
ENCODING 120
SWIDTH 292 0
DWIDTH 7 0
BBX 7 13 0 0
BITMAP
E6
6E
7C
7C
3C
38
38
38
3C
7C
7C
6E
E6
ENDCHAR
STARTCHAR y
ENCODING 121
SWIDTH 292 0
DWIDTH 7 0
BBX 7 17 0 -4
BITMAP
E6
6E
6E
6E
7C
7C
7C
3C
3C
3C
38
38
38
38
38
F8
F0
ENDCHAR
STARTCHAR z
ENCODING 122
SWIDTH 263 0
DWIDTH 7 0
BBX 6 13 0 0
BITMAP
FC
FC
0C
1C
1C
38
38
30
70
60
E0
FC
FC
ENDCHAR
STARTCHAR braceleft
ENCODING 123
SWIDTH 244 0
DWIDTH 6 0
BBX 6 21 0 -2
BITMAP
0C
3C
3C
30
30
30
30
30
30
70
F0
F0
30
30
30
30
30
30
30
3C
1C
ENDCHAR
STARTCHAR bar
ENCODING 124
SWIDTH 122 0
DWIDTH 3 0
BBX 3 21 0 -2
BITMAP
E0
E0
E0
E0
E0
E0
E0
E0
E0
E0
E0
E0
E0
E0
E0
E0
E0
E0
E0
E0
E0
ENDCHAR
STARTCHAR braceright
ENCODING 125
SWIDTH 244 0
DWIDTH 6 0
BBX 6 21 0 -2
BITMAP
C0
F0
F0
30
30
30
30
30
30
38
3C
3C
30
30
30
30
30
30
30
F0
E0
ENDCHAR
STARTCHAR asciitilde
ENCODING 126
SWIDTH 317 0
DWIDTH 8 0
BBX 8 3 0 18
BITMAP
7F
7E
FC
ENDCHAR
STARTCHAR space.dup2
ENCODING 160
SWIDTH 244 0
DWIDTH 6 0
BBX 1 1 0 0
BITMAP
00
ENDCHAR
STARTCHAR exclamdown
ENCODING 161
SWIDTH 122 0
DWIDTH 3 0
BBX 3 17 0 0
BITMAP
E0
E0
E0
00
E0
E0
E0
E0
E0
E0
E0
E0
E0
E0
E0
E0
E0
ENDCHAR
STARTCHAR cent
ENCODING 162
SWIDTH 268 0
DWIDTH 7 0
BBX 6 17 0 0
BITMAP
38
38
7C
7C
EC
EC
EC
E0
E0
E0
E0
EC
EC
FC
7C
38
38
ENDCHAR
STARTCHAR sterling
ENCODING 163
SWIDTH 292 0
DWIDTH 7 0
BBX 7 17 0 0
BITMAP
1E
3E
30
30
30
30
30
30
F8
F8
30
30
30
30
70
FE
FE
ENDCHAR
STARTCHAR currency
ENCODING 164
SWIDTH 305 0
DWIDTH 8 0
BBX 7 13 0 2
BITMAP
E6
6E
7E
7C
7E
6E
6E
6E
6E
7C
7C
6E
66
ENDCHAR
STARTCHAR yen
ENCODING 165
SWIDTH 292 0
DWIDTH 7 0
BBX 7 17 0 0
BITMAP
E6
EE
6E
7E
7C
7C
3C
38
FE
FE
FE
38
FE
FE
38
38
38
ENDCHAR
STARTCHAR brokenbar
ENCODING 166
SWIDTH 122 0
DWIDTH 3 0
BBX 3 21 0 -2
BITMAP
E0
E0
E0
E0
E0
E0
E0
E0
E0
E0
00
E0
E0
E0
E0
E0
E0
E0
E0
E0
E0
ENDCHAR
STARTCHAR section
ENCODING 167
SWIDTH 292 0
DWIDTH 7 0
BBX 7 20 0 -2
BITMAP
7C
7E
E6
E6
E6
F8
FC
FE
6E
6E
6E
6E
7E
3E
06
E6
E6
FE
7E
3C
ENDCHAR
STARTCHAR dieresis
ENCODING 168
SWIDTH 244 0
DWIDTH 6 0
BBX 6 2 0 18
BITMAP
FC
FC
ENDCHAR
STARTCHAR copyright
ENCODING 169
SWIDTH 366 0
DWIDTH 9 0
BBX 9 13 0 6
BITMAP
1C00
3E00
6B00
7F00
D580
D180
D180
D180
D580
7700
7F00
3E00
1C00
ENDCHAR
STARTCHAR ordfeminine
ENCODING 170
SWIDTH 805 0
DWIDTH 20 0
BBX 18 18 0 0
BITMAP
800040
000000
000000
000000
000000
000000
000000
000000
000000
000000
000000
000000
000000
000000
000000
000000
000000
000040
ENDCHAR
STARTCHAR guillemotleft
ENCODING 171
SWIDTH 439 0
DWIDTH 11 0
BBX 11 13 0 2
BITMAP
0EE0
0FC0
1DC0
3B80
3F00
7700
EE00
7E00
7700
3B80
1F80
1DC0
0EC0
ENDCHAR
STARTCHAR logicalnot
ENCODING 172
SWIDTH 495 0
DWIDTH 12 0
BBX 11 7 1 3
BITMAP
FFE0
FFE0
0060
0060
0060
0060
0060
ENDCHAR
STARTCHAR hyphen.dup3
ENCODING 173
SWIDTH 268 0
DWIDTH 7 0
BBX 6 2 0 7
BITMAP
FC
FC
ENDCHAR
STARTCHAR registered
ENCODING 174
SWIDTH 366 0
DWIDTH 9 0
BBX 9 13 0 6
BITMAP
1C00
3E00
7B00
7F00
D580
D580
DD80
D580
D580
7700
7700
3E00
1C00
ENDCHAR
STARTCHAR macron
ENCODING 175
SWIDTH 805 0
DWIDTH 20 0
BBX 18 18 0 0
BITMAP
800040
000000
000000
000000
000000
000000
000000
000000
000000
000000
000000
000000
000000
000000
000000
000000
000000
000040
ENDCHAR
STARTCHAR degree
ENCODING 176
SWIDTH 329 0
DWIDTH 8 0
BBX 7 7 1 11
BITMAP
38
7E
C2
C2
C2
C6
7C
ENDCHAR
STARTCHAR plusminus
ENCODING 177
SWIDTH 805 0
DWIDTH 20 0
BBX 18 18 0 0
BITMAP
800040
000000
000000
000000
000000
000000
000000
000000
000000
000000
000000
000000
000000
000000
000000
000000
000000
000040
ENDCHAR
STARTCHAR uni00B2
ENCODING 178
SWIDTH 805 0
DWIDTH 20 0
BBX 18 18 0 0
BITMAP
800040
000000
000000
000000
000000
000000
000000
000000
000000
000000
000000
000000
000000
000000
000000
000000
000000
000040
ENDCHAR
STARTCHAR uni00B3
ENCODING 179
SWIDTH 805 0
DWIDTH 20 0
BBX 18 18 0 0
BITMAP
800040
000000
000000
000000
000000
000000
000000
000000
000000
000000
000000
000000
000000
000000
000000
000000
000000
000040
ENDCHAR
STARTCHAR acute
ENCODING 180
SWIDTH 292 0
DWIDTH 7 0
BBX 6 4 1 18
BITMAP
10
7C
F8
C0
ENDCHAR
STARTCHAR mu
ENCODING 181
SWIDTH 268 0
DWIDTH 7 0
BBX 6 17 0 -4
BITMAP
EC
EC
EC
EC
EC
EC
EC
EC
EC
EC
EC
FC
FC
E0
E0
E0
E0
ENDCHAR
STARTCHAR paragraph
ENCODING 182
SWIDTH 500 0
DWIDTH 13 0
BBX 11 18 1 0
BITMAP
0FE0
3FE0
7EC0
7EC0
FEC0
FEC0
7EC0
7EC0
1EC0
06C0
06C0
06C0
06C0
06C0
06C0
06C0
06C0
06C0
ENDCHAR
STARTCHAR periodcentered
ENCODING 183
SWIDTH 122 0
DWIDTH 3 0
BBX 3 3 0 7
BITMAP
E0
E0
E0
ENDCHAR
STARTCHAR cedilla
ENCODING 184
SWIDTH 292 0
DWIDTH 7 0
BBX 7 6 0 -4
BITMAP
1C
1E
0E
E6
7E
7C
ENDCHAR
STARTCHAR uni00B9
ENCODING 185
SWIDTH 805 0
DWIDTH 20 0
BBX 18 18 0 0
BITMAP
800040
000000
000000
000000
000000
000000
000000
000000
000000
000000
000000
000000
000000
000000
000000
000000
000000
000040
ENDCHAR
STARTCHAR ordmasculine
ENCODING 186
SWIDTH 805 0
DWIDTH 20 0
BBX 18 18 0 0
BITMAP
800040
000000
000000
000000
000000
000000
000000
000000
000000
000000
000000
000000
000000
000000
000000
000000
000000
000040
ENDCHAR
STARTCHAR guillemotright
ENCODING 187
SWIDTH 439 0
DWIDTH 11 0
BBX 11 13 0 2
BITMAP
EE00
7E00
7700
3B80
1F80
1DC0
0EE0
0FC0
1DC0
3B80
3F00
7700
EE00
ENDCHAR
STARTCHAR onequarter
ENCODING 188
SWIDTH 805 0
DWIDTH 20 0
BBX 18 18 0 0
BITMAP
800040
000000
000000
000000
000000
000000
000000
000000
000000
000000
000000
000000
000000
000000
000000
000000
000000
000040
ENDCHAR
STARTCHAR onehalf
ENCODING 189
SWIDTH 805 0
DWIDTH 20 0
BBX 18 18 0 0
BITMAP
800040
000000
000000
000000
000000
000000
000000
000000
000000
000000
000000
000000
000000
000000
000000
000000
000000
000040
ENDCHAR
STARTCHAR threequarters
ENCODING 190
SWIDTH 805 0
DWIDTH 20 0
BBX 18 18 0 0
BITMAP
800040
000000
000000
000000
000000
000000
000000
000000
000000
000000
000000
000000
000000
000000
000000
000000
000000
000040
ENDCHAR
STARTCHAR questiondown
ENCODING 191
SWIDTH 268 0
DWIDTH 7 0
BBX 6 18 0 -1
BITMAP
38
38
38
00
38
38
38
70
70
60
E0
E0
EC
EC
EC
FC
7C
10
ENDCHAR
STARTCHAR Agrave
ENCODING 192
SWIDTH 292 0
DWIDTH 7 0
BBX 7 21 0 0
BITMAP
78
3C
0C
00
38
38
38
3C
3C
7C
7C
7C
7C
7C
7C
7E
7E
FE
EE
EE
E6
ENDCHAR
STARTCHAR Aacute
ENCODING 193
SWIDTH 292 0
DWIDTH 7 0
BBX 7 22 0 0
BITMAP
08
3E
7C
60
00
38
38
38
3C
3C
7C
7C
7C
7C
7C
7C
7E
7E
FE
EE
EE
E6
ENDCHAR
STARTCHAR Acircumflex
ENCODING 194
SWIDTH 292 0
DWIDTH 7 0
BBX 7 21 0 0
BITMAP
38
7C
EE
00
38
38
38
3C
3C
7C
7C
7C
7C
7C
7C
7E
7E
FE
EE
EE
E6
ENDCHAR
STARTCHAR Atilde
ENCODING 195
SWIDTH 292 0
DWIDTH 7 0
BBX 7 21 0 0
BITMAP
76
FE
FC
00
38
38
38
3C
3C
7C
7C
7C
7C
7C
7C
7E
7E
FE
EE
EE
E6
ENDCHAR
STARTCHAR Adieresis
ENCODING 196
SWIDTH 292 0
DWIDTH 7 0
BBX 7 20 0 0
BITMAP
6C
6C
00
38
38
38
3C
3C
7C
7C
7C
7C
7C
7C
7E
7E
FE
EE
EE
E6
ENDCHAR
STARTCHAR Aring
ENCODING 197
SWIDTH 292 0
DWIDTH 7 0
BBX 7 22 0 0
BITMAP
38
7C
7C
3C
10
38
38
38
3C
3C
7C
7C
7C
7C
7C
7C
7E
7E
FE
EE
EE
E6
ENDCHAR
STARTCHAR AE
ENCODING 198
SWIDTH 463 0
DWIDTH 12 0
BBX 11 17 0 0
BITMAP
3FE0
3FE0
3FE0
3E00
3E00
7E00
7E00
7E00
7FC0
7FC0
7E00
7E00
7E00
FE00
EE00
EFE0
E7E0
ENDCHAR
STARTCHAR Ccedilla
ENCODING 199
SWIDTH 292 0
DWIDTH 7 0
BBX 7 22 0 -5
BITMAP
7C
7E
EE
E6
E6
E0
E0
E0
E0
E0
E0
E0
E6
E6
E6
FE
7C
1E
E6
FE
7C
38
ENDCHAR
STARTCHAR Egrave
ENCODING 200
SWIDTH 292 0
DWIDTH 7 0
BBX 7 21 0 0
BITMAP
78
3C
0C
00
FE
FE
FE
E0
E0
E0
E0
E0
FC
FC
E0
E0
E0
E0
E0
FE
FE
ENDCHAR
STARTCHAR Eacute
ENCODING 201
SWIDTH 292 0
DWIDTH 7 0
BBX 7 22 0 0
BITMAP
08
3E
7C
60
00
FE
FE
FE
E0
E0
E0
E0
E0
FC
FC
E0
E0
E0
E0
E0
FE
FE
ENDCHAR
STARTCHAR Ecircumflex
ENCODING 202
SWIDTH 292 0
DWIDTH 7 0
BBX 7 21 0 0
BITMAP
38
7C
EE
00
FE
FE
FE
E0
E0
E0
E0
E0
FC
FC
E0
E0
E0
E0
E0
FE
FE
ENDCHAR
STARTCHAR Edieresis
ENCODING 203
SWIDTH 292 0
DWIDTH 7 0
BBX 7 20 0 0
BITMAP
6C
6C
00
FE
FE
FE
E0
E0
E0
E0
E0
FC
FC
E0
E0
E0
E0
E0
FE
FE
ENDCHAR
STARTCHAR Igrave
ENCODING 204
SWIDTH 122 0
DWIDTH 3 0
BBX 5 21 -1 0
BITMAP
F0
F8
18
00
70
70
70
70
70
70
70
70
70
70
70
70
70
70
70
70
70
ENDCHAR
STARTCHAR Iacute
ENCODING 205
SWIDTH 122 0
DWIDTH 3 0
BBX 5 21 -1 0
BITMAP
78
F8
C0
00
70
70
70
70
70
70
70
70
70
70
70
70
70
70
70
70
70
ENDCHAR
STARTCHAR Icircumflex
ENCODING 206
SWIDTH 122 0
DWIDTH 3 0
BBX 7 21 -2 0
BITMAP
38
7C
EE
00
38
38
38
38
38
38
38
38
38
38
38
38
38
38
38
38
38
ENDCHAR
STARTCHAR Idieresis
ENCODING 207
SWIDTH 122 0
DWIDTH 3 0
BBX 5 20 -1 0
BITMAP
D8
D8
00
70
70
70
70
70
70
70
70
70
70
70
70
70
70
70
70
70
ENDCHAR
STARTCHAR Eth
ENCODING 208
SWIDTH 317 0
DWIDTH 8 0
BBX 8 17 0 0
BITMAP
3E
3F
3F
33
33
33
33
33
FB
FB
33
33
33
33
33
3F
3E
ENDCHAR
STARTCHAR Ntilde
ENCODING 209
SWIDTH 317 0
DWIDTH 8 0
BBX 8 21 0 0
BITMAP
7F
7E
FC
00
E7
E7
F7
F7
F7
F7
FF
FF
FF
FF
FF
FF
EF
EF
EF
EF
E7
ENDCHAR
STARTCHAR Ograve
ENCODING 210
SWIDTH 292 0
DWIDTH 7 0
BBX 7 22 0 -1
BITMAP
78
3C
0C
00
7C
7E
EE
E6
E6
E6
E6
E6
E6
E6
E6
E6
E6
E6
E6
FE
7C
18
ENDCHAR
STARTCHAR Oacute
ENCODING 211
SWIDTH 292 0
DWIDTH 7 0
BBX 7 23 0 -1
BITMAP
08
3E
7C
60
00
7C
7E
EE
E6
E6
E6
E6
E6
E6
E6
E6
E6
E6
E6
E6
FE
7C
18
ENDCHAR
STARTCHAR Ocircumflex
ENCODING 212
SWIDTH 292 0
DWIDTH 7 0
BBX 7 22 0 -1
BITMAP
38
7C
EE
00
7C
7E
EE
E6
E6
E6
E6
E6
E6
E6
E6
E6
E6
E6
E6
FE
7C
18
ENDCHAR
STARTCHAR Otilde
ENCODING 213
SWIDTH 292 0
DWIDTH 7 0
BBX 7 22 0 -1
BITMAP
76
FE
FC
00
7C
7E
EE
E6
E6
E6
E6
E6
E6
E6
E6
E6
E6
E6
E6
FE
7C
18
ENDCHAR
STARTCHAR Odieresis
ENCODING 214
SWIDTH 292 0
DWIDTH 7 0
BBX 7 21 0 -1
BITMAP
6C
6C
00
7C
7E
EE
E6
E6
E6
E6
E6
E6
E6
E6
E6
E6
E6
E6
FE
7C
18
ENDCHAR
STARTCHAR multiply
ENCODING 215
SWIDTH 292 0
DWIDTH 7 0
BBX 7 13 0 2
BITMAP
E6
6E
7E
7C
3C
38
38
38
3C
3C
7C
6E
66
ENDCHAR
STARTCHAR Oslash
ENCODING 216
SWIDTH 292 0
DWIDTH 7 0
BBX 7 18 0 -1
BITMAP
7E
7E
EE
EE
EE
FE
FE
FE
FE
FE
F6
F6
F6
F6
E6
FE
FC
18
ENDCHAR
STARTCHAR Ugrave
ENCODING 217
SWIDTH 292 0
DWIDTH 7 0
BBX 7 22 0 -1
BITMAP
78
3C
0C
00
E6
E6
E6
E6
E6
E6
E6
E6
E6
E6
E6
E6
E6
E6
E6
FE
7C
18
ENDCHAR
STARTCHAR Uacute
ENCODING 218
SWIDTH 292 0
DWIDTH 7 0
BBX 7 23 0 -1
BITMAP
08
3E
7C
60
00
E6
E6
E6
E6
E6
E6
E6
E6
E6
E6
E6
E6
E6
E6
E6
FE
7C
18
ENDCHAR
STARTCHAR Ucircumflex
ENCODING 219
SWIDTH 292 0
DWIDTH 7 0
BBX 7 22 0 -1
BITMAP
38
7C
EE
00
E6
E6
E6
E6
E6
E6
E6
E6
E6
E6
E6
E6
E6
E6
E6
FE
7C
18
ENDCHAR
STARTCHAR Udieresis
ENCODING 220
SWIDTH 292 0
DWIDTH 7 0
BBX 7 21 0 -1
BITMAP
6C
6C
00
E6
E6
E6
E6
E6
E6
E6
E6
E6
E6
E6
E6
E6
E6
E6
FE
7C
18
ENDCHAR
STARTCHAR Yacute
ENCODING 221
SWIDTH 292 0
DWIDTH 7 0
BBX 7 22 0 0
BITMAP
08
3E
7C
60
00
E6
EE
6E
7E
7C
7C
3C
38
38
38
38
38
38
38
38
38
38
ENDCHAR
STARTCHAR Thorn
ENCODING 222
SWIDTH 292 0
DWIDTH 7 0
BBX 7 17 0 0
BITMAP
E0
E0
E0
F8
FC
FE
E6
E6
E6
E6
E6
E6
FE
FC
E0
E0
E0
ENDCHAR
STARTCHAR germandbls
ENCODING 223
SWIDTH 292 0
DWIDTH 7 0
BBX 7 18 0 -1
BITMAP
7C
7E
EE
E6
E6
E6
E6
FE
FE
FE
E6
E6
E6
E6
E6
FE
FC
18
ENDCHAR
STARTCHAR agrave
ENCODING 224
SWIDTH 268 0
DWIDTH 7 0
BBX 7 18 0 0
BITMAP
30
F8
3E
00
00
7C
7C
EC
EC
0C
7C
7C
FC
EC
EC
EC
FC
7C
ENDCHAR
STARTCHAR aacute
ENCODING 225
SWIDTH 268 0
DWIDTH 7 0
BBX 7 18 0 0
BITMAP
18
3E
F8
40
00
7C
7C
EC
EC
0C
7C
7C
FC
EC
EC
EC
FC
7C
ENDCHAR
STARTCHAR acircumflex
ENCODING 226
SWIDTH 268 0
DWIDTH 7 0
BBX 7 17 0 0
BITMAP
38
7C
CE
00
7C
7C
EC
EC
0C
7C
7C
FC
EC
EC
EC
FC
7C
ENDCHAR
STARTCHAR atilde
ENCODING 227
SWIDTH 268 0
DWIDTH 7 0
BBX 7 17 0 0
BITMAP
FE
FC
C8
00
7C
7C
EC
EC
0C
7C
7C
FC
EC
EC
EC
FC
7C
ENDCHAR
STARTCHAR adieresis
ENCODING 228
SWIDTH 268 0
DWIDTH 7 0
BBX 6 17 0 0
BITMAP
6C
6C
6C
00
7C
7C
EC
EC
0C
7C
7C
FC
EC
EC
EC
FC
7C
ENDCHAR
STARTCHAR aring
ENCODING 229
SWIDTH 268 0
DWIDTH 7 0
BBX 6 19 0 0
BITMAP
10
78
7C
7C
38
00
7C
7C
EC
EC
0C
7C
7C
FC
EC
EC
EC
FC
7C
ENDCHAR
STARTCHAR ae
ENCODING 230
SWIDTH 402 0
DWIDTH 10 0
BBX 10 14 0 -1
BITMAP
7F80
7FC0
ECC0
ECC0
0CC0
7FC0
7FC0
FFC0
ECC0
ECC0
ECC0
FFC0
7FC0
0100
ENDCHAR
STARTCHAR ccedilla
ENCODING 231
SWIDTH 268 0
DWIDTH 7 0
BBX 7 18 0 -5
BITMAP
7C
7C
EC
EC
EC
E0
E0
E0
EC
EC
EC
FC
7C
1E
CE
FE
7C
38
ENDCHAR
STARTCHAR egrave
ENCODING 232
SWIDTH 268 0
DWIDTH 7 0
BBX 7 19 0 -1
BITMAP
30
F8
3E
00
00
7C
7C
EC
EC
EC
FC
FC
FC
EC
EC
EC
FC
7C
10
ENDCHAR
STARTCHAR eacute
ENCODING 233
SWIDTH 268 0
DWIDTH 7 0
BBX 7 19 0 -1
BITMAP
18
3E
F8
40
00
7C
7C
EC
EC
EC
FC
FC
FC
EC
EC
EC
FC
7C
10
ENDCHAR
STARTCHAR ecircumflex
ENCODING 234
SWIDTH 268 0
DWIDTH 7 0
BBX 7 18 0 -1
BITMAP
38
7C
CE
00
7C
7C
EC
EC
EC
FC
FC
FC
EC
EC
EC
FC
7C
10
ENDCHAR
STARTCHAR edieresis
ENCODING 235
SWIDTH 268 0
DWIDTH 7 0
BBX 6 18 0 -1
BITMAP
6C
6C
6C
00
7C
7C
EC
EC
EC
FC
FC
FC
EC
EC
EC
FC
7C
10
ENDCHAR
STARTCHAR igrave
ENCODING 236
SWIDTH 122 0
DWIDTH 3 0
BBX 7 18 -2 0
BITMAP
30
F8
3E
04
00
38
38
38
38
38
38
38
38
38
38
38
38
38
ENDCHAR
STARTCHAR iacute
ENCODING 237
SWIDTH 122 0
DWIDTH 3 0
BBX 7 18 -2 0
BITMAP
18
3E
F8
40
00
38
38
38
38
38
38
38
38
38
38
38
38
38
ENDCHAR
STARTCHAR icircumflex
ENCODING 238
SWIDTH 117 0
DWIDTH 3 0
BBX 7 17 -2 0
BITMAP
38
6C
E6
00
38
38
38
38
38
38
38
38
38
38
38
38
38
ENDCHAR
STARTCHAR idieresis
ENCODING 239
SWIDTH 117 0
DWIDTH 3 0
BBX 5 17 -1 0
BITMAP
D8
D8
D8
00
70
70
70
70
70
70
70
70
70
70
70
70
70
ENDCHAR
STARTCHAR eth
ENCODING 240
SWIDTH 317 0
DWIDTH 8 0
BBX 8 17 0 0
BITMAP
18
1C
1C
0C
7F
7F
EC
EC
EC
EC
EC
EC
EC
EC
EC
FC
7C
ENDCHAR
STARTCHAR ntilde
ENCODING 241
SWIDTH 268 0
DWIDTH 7 0
BBX 7 17 0 0
BITMAP
FE
FC
C8
00
FC
FC
EC
EC
EC
EC
EC
EC
EC
EC
EC
EC
EC
ENDCHAR
STARTCHAR ograve
ENCODING 242
SWIDTH 268 0
DWIDTH 7 0
BBX 7 19 0 -1
BITMAP
30
F8
3E
00
00
7C
7C
EC
EC
EC
EC
EC
EC
EC
EC
EC
FC
7C
10
ENDCHAR
STARTCHAR oacute
ENCODING 243
SWIDTH 268 0
DWIDTH 7 0
BBX 7 19 0 -1
BITMAP
18
3E
F8
40
00
7C
7C
EC
EC
EC
EC
EC
EC
EC
EC
EC
FC
7C
10
ENDCHAR
STARTCHAR ocircumflex
ENCODING 244
SWIDTH 268 0
DWIDTH 7 0
BBX 7 18 0 -1
BITMAP
38
7C
CE
00
7C
7C
EC
EC
EC
EC
EC
EC
EC
EC
EC
FC
7C
10
ENDCHAR
STARTCHAR otilde
ENCODING 245
SWIDTH 268 0
DWIDTH 7 0
BBX 7 18 0 -1
BITMAP
FE
FC
C8
00
7C
7C
EC
EC
EC
EC
EC
EC
EC
EC
EC
FC
7C
10
ENDCHAR
STARTCHAR odieresis
ENCODING 246
SWIDTH 268 0
DWIDTH 7 0
BBX 6 18 0 -1
BITMAP
6C
6C
6C
00
7C
7C
EC
EC
EC
EC
EC
EC
EC
EC
EC
FC
7C
10
ENDCHAR
STARTCHAR divide
ENCODING 247
SWIDTH 268 0
DWIDTH 7 0
BBX 6 10 0 3
BITMAP
38
38
00
00
FC
FC
00
38
38
38
ENDCHAR
STARTCHAR oslash
ENCODING 248
SWIDTH 268 0
DWIDTH 7 0
BBX 6 14 0 -1
BITMAP
7C
7C
FC
FC
FC
FC
FC
FC
FC
FC
EC
FC
FC
10
ENDCHAR
STARTCHAR ugrave
ENCODING 249
SWIDTH 268 0
DWIDTH 7 0
BBX 7 18 0 0
BITMAP
30
F8
3E
00
00
EC
EC
EC
EC
EC
EC
EC
EC
EC
EC
EC
FC
7C
ENDCHAR
STARTCHAR uacute
ENCODING 250
SWIDTH 268 0
DWIDTH 7 0
BBX 7 18 0 0
BITMAP
18
3E
F8
40
00
EC
EC
EC
EC
EC
EC
EC
EC
EC
EC
EC
FC
7C
ENDCHAR
STARTCHAR ucircumflex
ENCODING 251
SWIDTH 268 0
DWIDTH 7 0
BBX 7 17 0 0
BITMAP
38
7C
CE
00
EC
EC
EC
EC
EC
EC
EC
EC
EC
EC
EC
FC
7C
ENDCHAR
STARTCHAR udieresis
ENCODING 252
SWIDTH 268 0
DWIDTH 7 0
BBX 6 17 0 0
BITMAP
6C
6C
6C
00
EC
EC
EC
EC
EC
EC
EC
EC
EC
EC
EC
FC
7C
ENDCHAR
STARTCHAR yacute
ENCODING 253
SWIDTH 292 0
DWIDTH 7 0
BBX 7 22 0 -4
BITMAP
18
3E
F8
40
00
E6
6E
6E
6E
7C
7C
7C
3C
3C
3C
38
38
38
38
38
F8
F0
ENDCHAR
STARTCHAR thorn
ENCODING 254
SWIDTH 268 0
DWIDTH 7 0
BBX 6 21 0 -4
BITMAP
E0
E0
E0
E0
FC
FC
EC
EC
EC
EC
EC
EC
EC
EC
EC
FC
FC
F0
E0
E0
E0
ENDCHAR
STARTCHAR ydieresis
ENCODING 255
SWIDTH 292 0
DWIDTH 7 0
BBX 7 21 0 -4
BITMAP
6C
6C
6C
00
E6
6E
6E
6E
7C
7C
7C
3C
3C
3C
38
38
38
38
38
F8
F0
ENDCHAR
STARTCHAR dotlessi
ENCODING 305
SWIDTH 122 0
DWIDTH 3 0
BBX 3 13 0 0
BITMAP
E0
E0
E0
E0
E0
E0
E0
E0
E0
E0
E0
E0
E0
ENDCHAR
STARTCHAR OE
ENCODING 338
SWIDTH 463 0
DWIDTH 12 0
BBX 11 18 0 -1
BITMAP
7FE0
7FE0
EFE0
E600
E600
E600
E600
E600
E7C0
E7C0
E600
E600
E600
E600
E600
FFE0
7FE0
1000
ENDCHAR
STARTCHAR oe
ENCODING 339
SWIDTH 415 0
DWIDTH 10 0
BBX 10 14 0 -1
BITMAP
7F80
7FC0
ECC0
ECC0
ECC0
EFC0
EFC0
EFC0
ECC0
ECC0
ECC0
FFC0
7FC0
1100
ENDCHAR
STARTCHAR circumflex
ENCODING 710
SWIDTH 292 0
DWIDTH 7 0
BBX 7 3 0 18
BITMAP
38
7C
EE
ENDCHAR
STARTCHAR caron
ENCODING 711
SWIDTH 292 0
DWIDTH 7 0
BBX 7 3 0 18
BITMAP
EE
7C
38
ENDCHAR
STARTCHAR uni02C9
ENCODING 713
SWIDTH 500 0
DWIDTH 13 0
BBX 7 2 3 14
BITMAP
FE
FE
ENDCHAR
STARTCHAR breve
ENCODING 728
SWIDTH 500 0
DWIDTH 13 0
BBX 8 4 3 13
BITMAP
83
C2
7E
3C
ENDCHAR
STARTCHAR dotaccent
ENCODING 729
SWIDTH 500 0
DWIDTH 13 0
BBX 3 3 5 14
BITMAP
60
E0
60
ENDCHAR
STARTCHAR ring
ENCODING 730
SWIDTH 219 0
DWIDTH 6 0
BBX 5 5 0 17
BITMAP
70
F8
F8
78
20
ENDCHAR
STARTCHAR ogonek
ENCODING 731
SWIDTH 292 0
DWIDTH 7 0
BBX 7 6 0 -4
BITMAP
30
70
E0
EE
7E
7C
ENDCHAR
STARTCHAR tilde
ENCODING 732
SWIDTH 317 0
DWIDTH 8 0
BBX 8 3 0 18
BITMAP
7F
7E
FC
ENDCHAR
STARTCHAR hungarumlaut
ENCODING 733
SWIDTH 500 0
DWIDTH 13 0
BBX 8 5 3 13
BITMAP
32
37
76
6C
C8
ENDCHAR
STARTCHAR semicolon.dup4
ENCODING 894
SWIDTH 146 0
DWIDTH 4 0
BBX 3 11 0 -1
BITMAP
60
60
60
00
00
00
00
00
60
60
E0
ENDCHAR
STARTCHAR endash
ENCODING 8211
SWIDTH 268 0
DWIDTH 7 0
BBX 6 2 0 7
BITMAP
FC
FC
ENDCHAR
STARTCHAR emdash
ENCODING 8212
SWIDTH 341 0
DWIDTH 9 0
BBX 8 2 0 7
BITMAP
FF
FF
ENDCHAR
STARTCHAR quoteleft
ENCODING 8216
SWIDTH 146 0
DWIDTH 4 0
BBX 3 3 0 15
BITMAP
E0
60
60
ENDCHAR
STARTCHAR quoteright
ENCODING 8217
SWIDTH 146 0
DWIDTH 4 0
BBX 3 3 0 15
BITMAP
60
60
E0
ENDCHAR
STARTCHAR quotesinglbase
ENCODING 8218
SWIDTH 146 0
DWIDTH 4 0
BBX 3 3 0 -1
BITMAP
60
60
E0
ENDCHAR
STARTCHAR quotedblleft
ENCODING 8220
SWIDTH 249 0
DWIDTH 6 0
BBX 6 3 0 15
BITMAP
F8
7C
6C
ENDCHAR
STARTCHAR quotedblright
ENCODING 8221
SWIDTH 249 0
DWIDTH 6 0
BBX 6 3 0 15
BITMAP
7C
7C
F8
ENDCHAR
STARTCHAR quotedblbase
ENCODING 8222
SWIDTH 244 0
DWIDTH 6 0
BBX 6 4 0 -2
BITMAP
7C
7C
78
D8
ENDCHAR
STARTCHAR dagger
ENCODING 8224
SWIDTH 495 0
DWIDTH 12 0
BBX 11 22 1 -4
BITMAP
0600
0F00
0E00
0600
66E0
FFE0
F5E0
4660
0600
0F00
0E00
0E00
0E00
0600
0600
0600
0600
0600
0400
0400
0400
0400
ENDCHAR
STARTCHAR daggerdbl
ENCODING 8225
SWIDTH 495 0
DWIDTH 12 0
BBX 11 21 1 -3
BITMAP
0600
0F00
0E00
0600
66E0
FFE0
F5E0
4460
0600
0E00
0F00
0E00
0600
0600
6460
FFE0
FFE0
6660
0E00
0F00
0F00
ENDCHAR
STARTCHAR bullet
ENCODING 8226
SWIDTH 500 0
DWIDTH 13 0
BBX 8 8 3 5
BITMAP
10
7E
FE
FF
FF
FF
7E
3C
ENDCHAR
STARTCHAR ellipsis
ENCODING 8230
SWIDTH 366 0
DWIDTH 9 0
BBX 9 2 0 0
BITMAP
FF80
FF80
ENDCHAR
STARTCHAR perthousand
ENCODING 8240
SWIDTH 561 0
DWIDTH 14 0
BBX 14 18 0 -1
BITMAP
78E0
7DC0
EDC0
ED80
EF80
EF00
FF00
7E00
3E00
0FF8
1FFC
1EEC
3EEC
3EEC
76EC
77FC
67FC
0110
ENDCHAR
STARTCHAR guilsinglleft
ENCODING 8249
SWIDTH 292 0
DWIDTH 7 0
BBX 7 13 0 2
BITMAP
0E
0E
1C
38
38
70
E0
70
70
38
1C
1C
0E
ENDCHAR
STARTCHAR guilsinglright
ENCODING 8250
SWIDTH 292 0
DWIDTH 7 0
BBX 7 13 0 2
BITMAP
E0
70
70
38
1C
1C
0E
0E
1C
38
38
70
E0
ENDCHAR
STARTCHAR fraction
ENCODING 8260
SWIDTH 268 0
DWIDTH 7 0
BBX 6 17 0 0
BITMAP
0C
0C
0C
1C
1C
18
18
38
38
30
30
30
70
70
60
60
E0
ENDCHAR
STARTCHAR franc
ENCODING 8355
SWIDTH 341 0
DWIDTH 9 0
BBX 8 17 0 0
BITMAP
3F
3F
3F
30
30
30
30
30
3E
3E
30
30
30
F8
F8
30
30
ENDCHAR
STARTCHAR lira
ENCODING 8356
SWIDTH 292 0
DWIDTH 7 0
BBX 7 17 0 0
BITMAP
1E
3E
30
30
30
30
30
30
F8
F8
30
30
30
30
70
FE
FE
ENDCHAR
STARTCHAR peseta
ENCODING 8359
SWIDTH 341 0
DWIDTH 9 0
BBX 8 17 0 0
BITMAP
3E
3F
3F
33
33
33
33
33
3F
3F
3C
30
30
F8
F8
30
30
ENDCHAR
STARTCHAR Euro
ENCODING 8364
SWIDTH 341 0
DWIDTH 9 0
BBX 8 18 0 -1
BITMAP
1E
3F
33
33
33
30
FC
FC
30
FC
FC
FC
33
33
33
3F
3F
0C
ENDCHAR
STARTCHAR uni2116
ENCODING 8470
SWIDTH 329 0
DWIDTH 8 0
BBX 8 9 0 8
BITMAP
D6
DF
DF
FF
FF
FF
FF
FF
F7
ENDCHAR
STARTCHAR trademark
ENCODING 8482
SWIDTH 378 0
DWIDTH 9 0
BBX 9 9 0 8
BITMAP
FD80
FD80
6D80
6D80
6F80
6F80
6F80
6F80
6E80
ENDCHAR
STARTCHAR partialdiff
ENCODING 8706
SWIDTH 805 0
DWIDTH 20 0
BBX 18 18 0 0
BITMAP
800040
000000
000000
000000
000000
000000
000000
000000
000000
000000
000000
000000
000000
000000
000000
000000
000000
000040
ENDCHAR
STARTCHAR Delta
ENCODING 8710
SWIDTH 805 0
DWIDTH 20 0
BBX 18 18 0 0
BITMAP
800040
000000
000000
000000
000000
000000
000000
000000
000000
000000
000000
000000
000000
000000
000000
000000
000000
000040
ENDCHAR
STARTCHAR product
ENCODING 8719
SWIDTH 805 0
DWIDTH 20 0
BBX 18 18 0 0
BITMAP
800040
000000
000000
000000
000000
000000
000000
000000
000000
000000
000000
000000
000000
000000
000000
000000
000000
000040
ENDCHAR
STARTCHAR summation
ENCODING 8721
SWIDTH 805 0
DWIDTH 20 0
BBX 18 18 0 0
BITMAP
800040
000000
000000
000000
000000
000000
000000
000000
000000
000000
000000
000000
000000
000000
000000
000000
000000
000040
ENDCHAR
STARTCHAR minus
ENCODING 8722
SWIDTH 268 0
DWIDTH 7 0
BBX 6 2 0 7
BITMAP
FC
FC
ENDCHAR
STARTCHAR fraction.dup5
ENCODING 8725
SWIDTH 268 0
DWIDTH 7 0
BBX 6 17 0 0
BITMAP
0C
0C
0C
1C
1C
18
18
38
38
30
30
30
70
70
60
60
E0
ENDCHAR
STARTCHAR periodcentered.dup6
ENCODING 8729
SWIDTH 122 0
DWIDTH 3 0
BBX 3 3 0 7
BITMAP
E0
E0
E0
ENDCHAR
STARTCHAR approxequal
ENCODING 8776
SWIDTH 805 0
DWIDTH 20 0
BBX 18 18 0 0
BITMAP
800040
000000
000000
000000
000000
000000
000000
000000
000000
000000
000000
000000
000000
000000
000000
000000
000000
000040
ENDCHAR
STARTCHAR lessequal
ENCODING 8804
SWIDTH 805 0
DWIDTH 20 0
BBX 18 18 0 0
BITMAP
800040
000000
000000
000000
000000
000000
000000
000000
000000
000000
000000
000000
000000
000000
000000
000000
000000
000040
ENDCHAR
STARTCHAR greaterequal
ENCODING 8805
SWIDTH 805 0
DWIDTH 20 0
BBX 18 18 0 0
BITMAP
800040
000000
000000
000000
000000
000000
000000
000000
000000
000000
000000
000000
000000
000000
000000
000000
000000
000040
ENDCHAR
STARTCHAR uniF001
ENCODING 61441
SWIDTH 523 0
DWIDTH 13 0
BBX 1 1 0 0
BITMAP
00
ENDCHAR
STARTCHAR uniF002
ENCODING 61442
SWIDTH 527 0
DWIDTH 13 0
BBX 1 1 0 0
BITMAP
00
ENDCHAR
STARTCHAR uniF001.dup7
ENCODING 64257
SWIDTH 523 0
DWIDTH 13 0
BBX 1 1 0 0
BITMAP
00
ENDCHAR
STARTCHAR uniF002.dup8
ENCODING 64258
SWIDTH 527 0
DWIDTH 13 0
BBX 1 1 0 0
BITMAP
00
ENDCHAR
STARTCHAR .notdef
ENCODING -1
SWIDTH 805 0
DWIDTH 20 0
BBX 18 18 0 0
BITMAP
800040
000000
000000
000000
000000
000000
000000
000000
000000
000000
000000
000000
000000
000000
000000
000000
000000
000040
ENDCHAR
STARTCHAR nonmarkingreturn
ENCODING -1
SWIDTH 248 0
DWIDTH 6 0
BBX 1 1 0 0
BITMAP
00
ENDCHAR
ENDFONT
